<svg width="109" height="88" viewBox="0 0 109 88" fill="none" xmlns="http://www.w3.org/2000/svg">
<path d="M98.0627 0H21.7918C15.7828 0 10.896 4.88678 10.896 10.8958V38.1354H21.7918V21.7917L56.6585 47.9417C57.6019 48.6481 58.7487 49.0299 59.9273 49.0299C61.1058 49.0299 62.2526 48.6481 63.196 47.9417L98.0627 21.7917V70.8229H54.4793V81.7188H98.0627C104.072 81.7188 108.959 76.832 108.959 70.8229V10.8958C108.959 4.88678 104.072 0 98.0627 0ZM59.9273 36.7734L25.4201 10.8958H94.4344L59.9273 36.7734Z" fill="#219653"/>
<path d="M0 43.5833H38.1354V54.4792H0V43.5833ZM10.8958 59.9271H43.5833V70.8229H10.8958V59.9271ZM27.2396 76.2708H49.0313V87.1667H27.2396V76.2708Z" fill="#219653"/>
</svg>
