<svg width="20" height="20" viewBox="0 0 20 20" fill="none" xmlns="http://www.w3.org/2000/svg">
<path d="M9.81245 2.5C8.62495 2.5 5.68745 2.625 4.12495 4.125C2.99995 5.1875 2.56245 6.8125 2.49995 8.75C2.37495 11.8125 3.06245 13.75 4.18745 14.75C4.43745 14.9375 5.06245 15.4375 6.24995 15.8125V17.375C6.24995 17.375 6.24995 18 6.62495 18.125C6.68745 18.125 6.74995 18.1875 6.81245 18.1875C7.18745 18.1875 7.49995 17.75 7.93745 17.3125C8.31245 16.875 8.62495 16.5625 8.81245 16.25H10.1874C11.3749 16.25 14.3124 16.125 15.8749 14.625C16.9999 13.5 17.4374 11.875 17.4374 9.8125C17.4999 9.5 17.4999 9.125 17.4999 8.75C17.4374 6.4375 16.7499 4.875 15.8124 4C15.4374 3.6875 13.8124 2.5 10.3124 2.5H9.81245V2.5ZM9.68745 3.6875H10.2499C13.5624 3.6875 14.8124 4.75 14.9374 4.875C15.6874 5.5 16.1249 6.875 16.1874 8.6875V8.9375C16.2499 9.3125 16.2499 9.625 16.2499 9.8125C16.1874 11.6875 15.8125 12.9375 15.0625 13.75C13.75 14.9375 10.9999 15 10.2499 15H9.06245L8.06245 16.125L7.43745 16.8125L7.31245 17C7.18745 17.125 6.99995 17.375 6.87495 17.4375V14.625C5.62495 14.3125 5.12495 13.875 4.99995 13.75C4.12495 13 3.62495 11.1875 3.74995 8.75V8.125C3.87495 6.625 4.24995 5.625 4.87495 4.9375C6.18745 3.75 8.93745 3.6875 9.68745 3.6875V3.6875ZM9.62495 5.0625C9.31245 5.0625 9.31245 5.5 9.62495 5.5C11.9374 5.5 13.9374 7.0625 13.9374 10C13.9374 10.3125 14.3749 10.3125 14.3749 10C14.3749 6.8125 12.2499 5 9.62495 5.0625V5.0625ZM7.14808 5.64062C7.00646 5.62365 6.86382 5.66268 6.75057 5.74938C6.12557 6.06188 5.49995 6.68812 5.68745 7.37562C5.68745 7.37562 5.81245 7.9375 6.49995 9.125C6.87495 9.6875 7.18745 10.1875 7.49995 10.5625C7.81245 11 8.31245 11.5 8.81245 11.875C9.81245 12.6875 11.3749 13.5 12.0624 13.6875C12.6874 13.875 13.3749 13.25 13.6874 12.625C13.8124 12.375 13.75 12.0625 13.5 11.875C13.125 11.5 12.4999 11.0625 12.0624 10.8125C11.7499 10.625 11.3749 10.75 11.2499 10.9375L10.9374 11.3125C10.8124 11.5 10.4999 11.5 10.4999 11.5C8.43745 10.9375 7.87495 8.8125 7.87495 8.8125C7.87495 8.8125 7.87495 8.5625 8.06245 8.375L8.43745 8.0625C8.62495 7.9375 8.74995 7.5625 8.56245 7.25C8.43745 7.0625 8.24995 6.6875 8.06245 6.5C7.87495 6.25 7.49995 5.8125 7.49995 5.8125C7.40513 5.71755 7.28126 5.65704 7.14808 5.64062V5.64062ZM10.0625 6.3125C9.74995 6.25 9.68745 6.75 9.99995 6.75C11.7499 6.875 12.7499 8.0625 12.6874 9.5625C12.6249 9.875 13.1249 9.875 13.1249 9.5625C13.1874 7.8125 12.0625 6.375 10.0625 6.3125V6.3125ZM10.2499 7.5C9.93745 7.4375 9.93745 7.9375 10.2499 7.9375C10.9999 7.9375 11.375 8.375 11.375 9.125C11.4375 9.4375 11.8749 9.4375 11.8749 9.125C11.8124 8.125 11.2499 7.5 10.2499 7.5Z" fill="black"/>
</svg>
